<?xml version="1.0" encoding="UTF-8" standalone="no"?>
<!-- Created with Inkscape (http://www.inkscape.org/) -->

<svg
   width="2000"
   height="2000"
   viewBox="0 0 2000 2000"
   version="1.1"
   id="SVGRoot"
   xmlns="http://www.w3.org/2000/svg"
   xmlns:svg="http://www.w3.org/2000/svg">
  <defs
     id="defs3900" />
  <g
     id="layer1">
    <path
       class="fil0"
       d="m 1483.4873,1081.6193 c 24.4244,0 313.7503,-0.7093 324.5652,0.8748 4.9272,0.7224 5.1138,6.9011 4.2777,10.9729 -11.554,56.2362 6.6243,57.2843 -29.2894,57.3027 l -205.9468,0.2469 c -9.5309,0.05 -15.5331,-0.1079 -16.0706,15.7068 l -20.3235,217.0818 c -1.6697,8.2225 -9.4388,6.9301 -17.7304,6.8696 -20.3234,-0.1496 -135.356,-1.0613 -146.9772,0.8486 -26.5446,4.3634 -20.1716,-7.2453 -13.6618,-56.0707 l 17.2129,-176.9939 c -0.6296,-7.7916 -8.9586,-7.395 -14.3337,-7.3871 -68.702,0.1549 -143.2644,-0.6173 -211.185,0.3284 -6.6094,0.26 -11.3873,-1.8836 -9.618,-9.6857 2.3218,-10.2401 2.5631,-25.3348 4.977,-35.8191 3.6655,-15.9328 -2.389,-24.3654 16.1751,-24.3549 l 317.9036,0.3546 c 0.027,-0.1918 0.027,-0.2468 0.027,-0.2731 z"
       id="path2637"
       style="clip-rule:evenodd;fill:#d45500;fill-rule:nonzero;stroke-width:0.25568;image-rendering:optimizeQuality;shape-rendering:geometricPrecision;text-rendering:geometricPrecision" />
    <path
       class="fil0"
       d="m 1510.3927,790.73457 c -25.3775,0 -50.7551,0 -76.1326,0 -13.0098,0 -16.2572,-0.42295 -14.8786,-14.12011 l 7.4928,-73.63735 5.0018,-50.92433 c 1.518,-17.54571 3.8074,-34.92855 4.5117,-52.5662 0.184,-4.62352 0.4902,-9.33109 4.7704,-10.48172 6.8931,-1.85466 14.2913,-1.13223 21.5403,-1.148 l 143.3216,-0.84852 c 17.9071,-0.14968 14.7119,7.45542 12.313,30.67544 l -4.2503,46.24566 c -1.2094,15.34691 -4.1931,35.693 -4.8476,49.31135 -0.7465,15.51767 -6.3854,56.25976 -6.0918,67.39823 0.2912,11.15948 -9.7399,9.98784 -17.3945,9.98784 -25.1187,0 -50.2623,0 -75.3811,0 0.028,0.13655 0.028,0.10782 0.028,0.10782 z"
       id="path2639"
       style="clip-rule:evenodd;fill:#d45500;fill-rule:nonzero;stroke-width:0.25568;image-rendering:optimizeQuality;shape-rendering:geometricPrecision;text-rendering:geometricPrecision" />
    <path
       class="fil0"
       d="m 636.78131,933.1677 -0.0524,-96.10342 c -0.10447,-6.8407 -0.0207,-9.3705 8.29411,-9.35999 l 35.79681,0.32838 c 2.64526,0.2731 4.66591,1.53154 5.88526,4.15853 l 22.86168,49.5583 c 1.68471,3.80389 2.67015,7.88099 4.66591,11.57454 l 24.31496,52.21156 c 2.84433,6.82757 5.66876,5.76101 8.5554,-0.57531 2.25456,-4.98078 4.48424,-9.96157 6.42775,-15.07896 6.27346,-16.3084 13.50499,-32.12554 21.28149,-47.66948 4.06867,-8.12793 8.01043,-16.28213 11.48435,-24.70953 3.57595,-8.64808 7.72425,-17.04921 11.61374,-25.55805 1.9012,-4.18481 5.65383,-3.82491 9.79716,-3.83017 l 35.82418,-0.0274 c 3.75015,0.30999 4.18065,4.06134 4.17319,7.16907 l -0.0772,196.17623 c -0.0181,5.3959 -1.07005,8.1358 -6.58452,8.1279 l -32.06409,-0.4387 c -4.19807,-0.4833 -4.44692,-5.0175 -4.51162,-8.6743 l -0.2066,-42.52321 -0.31106,-57.49182 c 0.13946,-11.72955 -3.62323,-9.58592 -4.20055,-8.40114 l -11.79292,25.42145 -19.31311,44.3043 -10.39439,21.78302 c -1.73696,2.8188 -4.1483,4.4318 -7.44056,4.3792 -6.45512,-0.1102 -12.93513,-0.1655 -19.39025,-0.2731 -4.91226,-0.074 -8.67983,-7.8704 -9.95393,-11.6586 -2.77466,-8.25137 -11.46941,-22.77078 -15.88896,-34.67108 l -22.94131,-52.89457 c -0.6271,-1.11385 -3.35447,-1.70493 -3.44655,3.55695 l 0.41558,13.38192 -0.15683,100.01768 c -0.71419,4.8809 -5.36019,4.8652 -8.9436,4.8704 l -29.08539,-0.1655 c -5.2706,-0.6883 -5.07899,-6.5465 -5.00185,-10.7549 l 0.59724,-96.10344 c -0.10213,-0.0525 -0.17912,-0.0525 -0.23148,-0.0525 z"
       id="path2641"
       style="clip-rule:evenodd;fill:#d45500;fill-rule:nonzero;stroke-width:0.25568;image-rendering:optimizeQuality;shape-rendering:geometricPrecision;text-rendering:geometricPrecision" />
    <path
       class="fil0"
       d="m 1742.9638,976.04817 -30.9493,-0.0815 c -6.4551,-0.40193 -8.5355,-5.60338 -8.528,-11.62971 0.01,-8.48257 -0.4156,-40.59235 0.9332,-47.23077 1.2965,-6.38361 6.8856,-6.56224 11.977,-6.62004 l 61.9259,-0.3021 c 11.3997,0.0219 11.2728,-4.83367 11.3549,-12.14986 0.2066,-20.22262 0.3882,-40.44524 0.5973,-60.66786 0.1467,-14.75059 0.6047,-15.48089 16.409,-15.45988 l 39.5569,0.54642 c 6.1715,0.60683 6.164,7.20848 6.2212,13.21642 l 0.8287,67.75287 c 0.8934,6.69359 8.4832,6.578 13.4527,6.64893 l 54.4605,0.2731 c 16.4513,0 17.591,0.72242 17.7055,20.49583 0.07,11.97122 0.3808,26.00726 -1.0103,37.76307 -0.9481,8.00972 -13.3856,6.95104 -18.7408,7.0062 -12.5892,0.12862 -50.332,-0.12341 -60.4502,0.90369 -6.368,0.64624 -6.0544,5.96066 -6.0669,12.2313 -0.077,20.74272 -0.1293,41.48552 -0.1817,62.25452 -0.028,20.7796 -5.0168,12.2497 -44.9992,14.0676 -4.1981,0.1918 -8.4509,-0.3284 -12.649,-0.7382 -4.646,-0.4309 -5.0989,-7.0798 -5.0815,-10.9467 0.077,-17.2278 1.3065,-56.57234 -0.077,-71.66707 -0.647,-7.06399 -8.8117,-6.03946 -15.7869,-6.01845 -8.8665,0.0525 -17.835,0.18909 -30.8995,0.35202 z"
       id="path2643"
       style="clip-rule:evenodd;fill:#d45500;fill-rule:nonzero;stroke-width:0.25568;image-rendering:optimizeQuality;shape-rendering:geometricPrecision;text-rendering:geometricPrecision" />
    <path
       class="fil0"
       d="m 1308.2807,932.70273 c 0,-31.7709 0,-63.53917 0,-95.33897 0,-7.35559 0.8859,-9.14195 8.6823,-9.11305 l 27.6072,0.43871 c 2.3069,0.27309 4.0189,1.36866 5.5469,3.42035 l 49.7447,70.7923 27.1668,39.46012 c 0.7838,1.31613 8.7843,13.43709 10.3421,8.1542 0.2862,-0.98512 0.6993,-2.02541 0.647,-3.01054 l 0.3111,-114.21919 c 0.5549,-4.40285 4.1259,-5.03858 7.2838,-5.00706 l 31.2876,0.82225 c 4.1906,0.51227 4.3225,7.89938 4.3549,11.46685 l 1.0651,188.2952 c 0.087,10.8128 -2.4363,11.5142 -10.6781,11.6297 -33.5572,0.4677 -27.0996,2.8398 -40.8012,-17.3486 l -23.2001,-32.78232 -46.012,-66.90698 c -1.0651,-1.479 -3.9244,-8.388 -7.3112,-6.40199 -1.7494,1.02452 -1.6872,3.75397 -1.6847,5.71897 l 0.052,102.42392 c -0.01,9.0159 0.316,15.0921 -10.1107,15.0764 -4.8127,-0.01 -27.5027,0.4387 -30.5362,-0.6305 -3.8472,-1.3555 -4.0886,-4.7181 -4.0438,-8.3749 l 0.1817,-98.48344 c 0.1818,-0.0815 0.1294,-0.0815 0.1045,-0.0815 z"
       id="path2645"
       style="clip-rule:evenodd;fill:#000000;fill-rule:nonzero;stroke-width:0.25568;image-rendering:optimizeQuality;shape-rendering:geometricPrecision;text-rendering:geometricPrecision" />
    <path
       class="fil0"
       d="m 1524.4178,932.92077 c -1.1372,-32.93466 -0.4927,-63.76772 -0.6221,-96.87051 -0.026,-6.26539 1.6598,-7.88099 7.4132,-7.88099 l 131.3197,0.60158 c 3.3918,0.61209 4.0189,4.4081 4.0189,7.49745 l -0.2066,27.55457 c -0.5525,5.86083 -5.1711,5.79778 -8.9685,5.80041 -25.8703,0.0553 -51.7405,0.13655 -77.6083,0.19182 -8.6102,0.0109 -11.3624,0.3888 -11.2256,10.86264 l 0.336,25.96786 c 0.5698,6.38097 7.7815,5.90286 13.6344,5.85557 l 68.6398,-0.65674 c 4.7181,-0.0815 6.9727,1.72331 6.9727,6.86959 l -0.2587,31.49507 c -0.8063,3.21019 -4.0861,3.39933 -6.7388,3.44924 l -78.31,0.79336 c -3.9219,0.76445 -4.646,5.18043 -4.6659,8.78467 -0.042,7.24526 -0.8188,25.21392 0.647,31.41363 0.9555,4.03769 4.8699,3.73559 7.3609,3.72245 10.79,-0.0577 81.4306,-1.71805 87.9778,0.52015 3.8646,1.32141 3.8223,4.68391 3.8098,8.45631 l -0.4678,28.3216 c -0.7192,4.8836 -6.4228,4.5395 -10.6806,4.5421 l -120.8979,0.2181 c -14.0226,0.016 -11.6311,-2.007 -11.5092,-16.9651 l -0.2338,-35.43559 c -0.026,-18.38897 0,-36.75168 0,-55.14066 0.082,0.029 0.1617,0.029 0.2638,0.029 z"
       id="path2647"
       style="clip-rule:evenodd;fill:#000000;fill-rule:nonzero;stroke-width:0.25568;image-rendering:optimizeQuality;shape-rendering:geometricPrecision;text-rendering:geometricPrecision" />
    <path
       class="fil0"
       d="m 891.64168,933.33058 -0.23382,-97.66386 c -0.0524,-5.41949 1.4259,-7.05874 6.60941,-7.05874 h 129.11483 c 6.0918,0.0274 7.4406,1.39493 7.5177,7.88099 0.1045,8.40114 0.077,16.80227 0.052,25.20341 -0.026,5.58236 -1.9435,7.96242 -7.7516,7.93615 l -87.27852,0.54642 c -4.07116,0.5937 -4.2354,4.61563 -4.2777,7.99132 v 29.1439 c 0.42304,5.04909 5.29051,5.04384 10.21273,5.11739 l 74.60469,0.2731 c 3.877,0.63311 5.2158,3.7172 5.3129,7.38974 l -0.026,28.35055 c -0.8236,5.6927 -8.839,4.90986 -12.7783,4.92562 l -73.82577,0.60158 c -3.94424,0.52278 -3.80986,5.05172 -3.80986,8.29081 l 0.23381,30.70171 c 0.54498,4.43174 4.66093,4.78638 8.18959,4.84418 l 82.09253,-0.2731 c 7.4331,0 10.1505,0.36253 10.1604,8.51145 l -0.027,29.1439 c -0.3982,6.6673 -6.5248,5.3223 -12.7784,5.3092 l -120.87299,-0.1656 c -9.95144,0.019 -10.16047,-1.6734 -10.26499,-11.656 l -0.23381,-95.3363 c -0.0524,-0.003 0,-0.003 0.0524,-0.003 z"
       id="path2649"
       style="clip-rule:evenodd;fill:#d45500;fill-rule:nonzero;stroke-width:0.25568;image-rendering:optimizeQuality;shape-rendering:geometricPrecision;text-rendering:geometricPrecision" />
    <path
       class="fil0"
       d="m 442.834,828.25071 c 23.6157,0 47.25628,0 70.86948,0 6.87319,0 9.58066,-0.54642 9.59061,6.92213 0.0104,6.63843 0.4753,26.03617 -0.44046,31.44253 -0.71668,4.23472 -5.73595,3.67254 -9.56573,3.66729 l -44.01378,0.0815 c -4.89484,0.34939 -5.51696,5.41687 -5.57171,9.57803 l 0.56986,64.57946 c 0.12935,27.5572 0.12935,55.11177 0.15683,82.69525 0.002,5.9265 0.93816,12.1236 -6.66167,12.205 l -34.26888,0.3546 c -2.99613,-0.4124 -4.87991,-3.3914 -4.84756,-6.8958 l 0.80378,-150.39558 c 0.12701,-10.62357 0.0155,-12.2707 -11.12103,-12.26019 l -43.26226,-0.029 c -3.12802,-0.23369 -3.7377,-4.02193 -3.73272,-6.73299 l 0.12935,-29.93725 c 0.13946,-5.94752 4.79779,-5.22773 9.69512,-5.22773 l 71.67326,-0.0553 z"
       id="path2651"
       style="clip-rule:evenodd;fill:#d45500;fill-rule:nonzero;stroke-width:0.25568;image-rendering:optimizeQuality;shape-rendering:geometricPrecision;text-rendering:geometricPrecision" />
    <path
       class="fil0"
       d="m 1078.8228,763.78158 -98.42446,-0.3021 c -8.17962,-1.25308 -13.05206,-9.31008 -11.2504,-16.36357 l 8.01042,-27.8304 c 4.80028,-13.34514 15.29418,-17.10963 27.42554,-17.24098 l 79.8131,-0.68302 70.093,-1.3135 c 7.9582,-0.0815 15.9164,-0.13655 23.8745,-0.32837 11.3425,-0.28109 25.0267,5.87659 25.7135,18.47041 1.1149,20.44855 -5.7608,42.64929 -28.2293,45.12393 -1.9709,0.21809 -3.9667,0.13654 -5.9624,0.13654 -30.3272,0 -60.6568,0 -90.9864,0 -0.077,0.11028 -0.077,0.22056 -0.077,0.33101 z"
       id="path2653"
       style="clip-rule:evenodd;fill:#000000;fill-rule:nonzero;stroke-width:0.25568;image-rendering:optimizeQuality;shape-rendering:geometricPrecision;text-rendering:geometricPrecision" />
    <path
       class="fil0"
       d="m 1023.1181,1189.8463 93.9924,-0.1918 c 17.2278,-0.2627 28.1348,9.2023 31.7033,26.953 2.6726,13.2926 5.0267,26.6955 -11.9497,31.9889 -5.6787,1.7706 -35.7844,1.1427 -43.1851,1.1217 -47.7465,-0.1365 -95.49546,-0.3021 -143.24445,-0.465 -9.15263,-0.016 -11.3425,-0.095 -20.1144,-4.7075 -10.88462,-5.7243 -12.32545,-21.3654 -16.09799,-30.8672 -2.71991,-6.8486 -3.44903,-20.488 5.31291,-22.3558 l 12.5967,-1.232 91.01123,-0.2469 c -0.026,0.029 -0.026,0 -0.026,0 z"
       id="path2655"
       style="clip-rule:evenodd;fill:#000000;fill-rule:nonzero;stroke-width:0.25568;image-rendering:optimizeQuality;shape-rendering:geometricPrecision;text-rendering:geometricPrecision" />
    <path
       class="fil0"
       d="m 1068.4284,934.3157 0.3359,-101.60435 c 0.4853,-5.01231 6.7413,-4.08498 12.2085,-4.0771 8.4509,0.0274 16.9018,0.0815 25.3776,0.11028 7.3559,0.0315 6.6641,3.42035 6.7388,10.89153 0.052,44.63267 0.1293,89.29162 0.1817,133.92166 0.016,22.87852 -1.5752,23.06766 12.1313,23.06766 19.6491,0 39.2981,0.0274 58.9447,0.0274 7.2514,0 12.7883,-0.91683 12.6241,9.44142 -0.5326,33.9855 2.2769,34.3217 -13.194,34.3138 -34.5799,-0.027 -69.1599,-0.027 -103.7373,-0.082 -11.2579,-0.011 -11.8203,-0.8432 -11.8203,-10.6997 0,-31.77093 0,-63.5392 0,-95.339 0.1021,0.029 0.1542,0.029 0.2066,0.029 z"
       id="path2657"
       style="clip-rule:evenodd;fill:#000000;fill-rule:nonzero;stroke-width:0.25568;image-rendering:optimizeQuality;shape-rendering:geometricPrecision;text-rendering:geometricPrecision" />
    <path
       class="fil0"
       d="m 992.29584,1153.4782 c -29.57565,0 -59.17863,0 -88.75673,0 -6.66167,0 -11.39725,-0.037 -16.66785,-5.1463 -7.6496,-7.4134 0.23381,-25.8339 3.44655,-35.7377 4.05124,-12.4887 12.54194,-17.4853 24.54887,-17.4853 14.90601,0 29.80953,-1.0114 44.71553,-0.9851 l 129.01279,0.1365 c 7.6496,0.092 14.5751,0.3232 20.1941,6.1288 2.6452,2.7374 3.9666,6.1025 3.2922,9.9879 -1.4657,8.606 -5.1511,27.5335 -10.4466,34.1772 -7.5152,9.4309 -16.1702,8.8556 -26.5969,8.8661 -27.5525,0.055 -55.1348,0.029 -82.74196,0.055 0,-0.027 0,-0.027 0,0 z"
       id="path2659"
       style="clip-rule:evenodd;fill:#000000;fill-rule:nonzero;stroke-width:0.25568;image-rendering:optimizeQuality;shape-rendering:geometricPrecision;text-rendering:geometricPrecision" />
    <path
       class="fil0"
       d="m 764.57481,765.36829 -88.00516,0.90368 c -8.80674,-0.12861 -20.61708,-6.3836 -15.42361,-18.49931 6.9354,-16.17704 10.58102,-28.26911 27.6321,-34.88914 6.60941,-2.57183 13.40048,-3.50179 20.47772,-3.55695 l 102.18453,-1.53154 50.72771,-0.98513 c 5.75586,-0.3021 11.40471,0 16.97891,1.72331 9.93402,3.0946 12.639,13.30837 8.60517,23.72441 -6.57208,16.97303 -17.7155,31.87598 -36.62797,32.09927 l -86.55189,1.01402 z"
       id="path2661"
       style="clip-rule:evenodd;fill:#000000;fill-rule:nonzero;stroke-width:0.25568;image-rendering:optimizeQuality;shape-rendering:geometricPrecision;text-rendering:geometricPrecision" />
    <path
       class="fil0"
       d="m 1027.8338,1353.897 c -24.8077,-0.9851 -47.66936,-0.9851 -70.53353,-0.9851 -4.17069,0 -17.83992,0.082 -21.43827,-1.6682 -6.59945,-3.2128 -8.02784,-10.4265 -6.19383,-15.8171 4.76544,-14.0124 4.18314,-26.2936 17.73043,-33.8489 2.84932,-1.5893 13.70159,-2.4352 16.92666,-2.4352 23.35438,0 46.73614,-0.3546 70.06564,0.027 24.1059,0.3835 48.2144,0.3546 72.3228,0.3546 10.2077,0 19.4076,-1.0744 28.9808,0.9589 7.8537,1.6681 11.992,9.5149 9.8519,18.142 -4.4593,17.9608 -16.8744,36.0871 -36.1352,36.2026 z"
       id="path2663"
       style="clip-rule:evenodd;fill:#000000;fill-rule:nonzero;stroke-width:0.25568;image-rendering:optimizeQuality;shape-rendering:geometricPrecision;text-rendering:geometricPrecision" />
    <path
       class="fil0"
       d="m 1085.6412,653.99413 -75.3537,0.79336 c -12.68626,0.13135 -23.91926,-1.05606 -29.47356,-15.87232 l -4.94959,-13.13498 c -1.84148,-3.17341 -2.61788,-6.81443 -3.8895,-10.20588 -1.84645,-4.89935 2.9165,-12.49137 9.92659,-12.83288 l 34.26886,-1.25833 32.8156,-0.90369 c 29.8369,-0.46498 59.6713,-1.36867 89.4808,-2.70843 10.8523,-0.47549 23.0284,0.11027 31.4942,8.61917 5.0541,5.08849 9.6952,10.53426 12.8058,17.26725 2.7024,5.84507 9.6528,14.3329 2.7224,22.19287 -5.1064,5.7899 -11.6362,5.77677 -20.0896,6.21285 l -24.5986,0.54641 -52.2059,0.95886 c -0.9854,0.0274 -1.9957,0 -2.9812,0 0.027,0.13655 0.027,0.21809 0.027,0.32837 z"
       id="path2665"
       style="clip-rule:evenodd;fill:#000000;fill-rule:nonzero;stroke-width:0.25568;image-rendering:optimizeQuality;shape-rendering:geometricPrecision;text-rendering:geometricPrecision" />
    <path
       class="fil0"
       d="m 1321.7359,762.65723 c -16.7126,0.11028 -63.8718,1.06918 -70.6106,-0.2181 -5.8554,-1.12173 -10.5736,-9.43092 -9.9017,-14.85829 1.6772,-13.53954 3.0558,-15.49666 2.6179,-31.30592 -0.5425,-19.61316 12.2483,-20.21737 26.7238,-20.35923 l 86.5519,-0.82225 c 9.1899,-0.0919 15.3166,-0.81437 23.8993,4.21371 8.217,4.81528 9.1801,15.14989 9.8768,24.13684 l 0.3633,20.44066 c -0.7141,10.78382 -9.6354,18.91438 -18.559,19.09827 z"
       id="path2667"
       style="clip-rule:evenodd;fill:#000000;fill-rule:nonzero;stroke-width:0.25568;image-rendering:optimizeQuality;shape-rendering:geometricPrecision;text-rendering:geometricPrecision" />
    <path
       class="fil0"
       d="m 1258.1502,1187.0538 c 16.9018,0 33.7762,0 50.678,0 10.9095,0 18.1534,-1.1559 24.4194,9.1682 4.5664,7.5237 6.8185,29.1912 6.378,38.3647 -0.545,11.3145 -12.2582,17.128 -20.8659,17.2121 l -102.8315,-0.1656 c -14.0077,-0.095 -23.7526,-2.2907 -26.3356,-20.7979 -0.9581,-7.0062 -2.1003,-13.9573 -4.1981,-20.7139 -2.4586,-7.902 -2.9688,-18.783 6.5074,-21.9459 6.7662,-2.2592 66.2558,-0.2285 66.2558,-1.1218 z"
       id="path2669"
       style="clip-rule:evenodd;fill:#000000;fill-rule:nonzero;stroke-width:0.25568;image-rendering:optimizeQuality;shape-rendering:geometricPrecision;text-rendering:geometricPrecision" />
    <path
       class="fil0"
       d="m 549.63218,932.67383 0.2587,-101.49402 c 0.50267,-2.20668 3.04093,-2.64539 4.87245,-2.65327 l 32.79073,-0.11028 c 6.92295,0.57532 5.75834,5.63754 5.72848,13.65513 l 0.75152,96.78907 0.2066,92.87484 c -0.0822,10.6866 -7.02001,7.944 -21.72196,7.6892 -20.83357,-0.3599 -22.75966,2.1831 -22.75966,-9.9589 0,-32.26217 0,-64.55321 0,-96.81536 -0.0498,0.0274 -0.10213,0.0274 -0.12935,0.0274 z"
       id="path2671"
       style="clip-rule:evenodd;fill:#d45500;fill-rule:nonzero;stroke-width:0.25568;image-rendering:optimizeQuality;shape-rendering:geometricPrecision;text-rendering:geometricPrecision" />
    <path
       class="fil0"
       d="m 1220.9002,933.05737 0.1568,-100.04392 c 0.4454,-4.42386 4.4195,-4.46064 8.2692,-4.46064 l 31.3126,0.38354 c 3.8571,0.6226 3.7775,5.69796 3.8098,9.19449 l 0.2837,196.94336 c -0.8933,5.0543 -5.4174,5.162 -8.8664,5.1436 -5.9973,-0.029 -27.6869,0.528 -31.9621,-1.3686 -3.3097,-1.4685 -3.2101,-4.8889 -3.2151,-8.8924 l -0.026,-96.9257 c 0.1044,0.029 0.1817,0.029 0.2338,0.029 z"
       id="path2673"
       style="clip-rule:evenodd;fill:#000000;fill-rule:nonzero;stroke-width:0.25568;image-rendering:optimizeQuality;shape-rendering:geometricPrecision;text-rendering:geometricPrecision" />
    <path
       class="fil0"
       d="m 800.99375,657.44075 -80.51235,1.45011 c -5.04166,0.0892 -15.50075,-0.20743 -19.23348,-4.40548 -2.79954,-3.14977 -5.17106,-5.18044 -5.78074,-9.82497 -0.87595,-6.67519 -1.48562,-17.33292 3.29226,-22.65784 5.95245,-6.6358 7.98056,-4.73648 10.2401,-5.6927 6.16895,-2.54556 12.62407,-2.57183 19.10408,-2.627 27.39819,-0.24683 73.3281,0.14175 99.92748,-2.24346 16.15025,-1.4501 32.29801,-0.68302 48.44826,-0.92995 3.70784,-0.0657 10.0236,2.5692 13.40047,4.2426 11.33504,5.60863 23.88196,36.18425 -2.41134,40.96276 -10.82489,1.96762 -70.02588,1.72593 -86.47474,1.72593 z"
       id="path2675"
       style="clip-rule:evenodd;fill:#000000;fill-rule:nonzero;stroke-width:0.25568;image-rendering:optimizeQuality;shape-rendering:geometricPrecision;text-rendering:geometricPrecision" />
    <path
       class="fil0"
       d="m 737.61709,1095.5765 c 19.64905,0 39.2981,0 58.94467,0 2.22968,0 4.48424,0 6.71392,0.1918 8.30407,0.6831 14.21919,10.445 10.41928,21.016 -7.42563,20.6587 -8.97845,33.5757 -34.65709,33.5757 l -116.36142,-0.2469 c -6.37549,-0.089 -10.97171,-0.7644 -14.93089,-6.8407 -2.22968,-3.4203 -3.1106,-6.951 -2.25456,-11.1384 1.8141,-8.8399 5.10636,-16.9941 9.53835,-24.6281 7.14692,-12.2865 17.66075,-11.8951 29.65524,-11.9029 17.62592,-0.025 35.27921,-0.025 52.93001,-0.025 z"
       id="path2677"
       style="clip-rule:evenodd;fill:#000000;fill-rule:nonzero;stroke-width:0.25568;image-rendering:optimizeQuality;shape-rendering:geometricPrecision;text-rendering:geometricPrecision" />
    <path
       class="fil0"
       d="m 1232.7204,1358.2473 c -16.409,0 -32.8156,-0.027 -49.2246,0.027 -10.7503,0.019 -15.8168,-6.8749 -13.6867,-11.9844 5.079,-12.1788 9.8743,-20.7217 14.5153,-33.6045 2.4412,-6.7803 9.2895,-14.3408 14.9583,-15.2419 8.9511,-1.4238 89.5878,-0.3809 110.297,-0.3283 5.176,0.014 12.8829,0.2915 13.9454,7.3608 0.6471,4.2137 0.4928,8.3722 -1.1671,12.3416 -3.4739,8.3171 -10.3072,22.3479 -15.7869,29.3882 -11.9123,15.3128 -26.0195,12.6201 -42.5381,12.5597 -10.4466,-0.027 -20.8659,0 -31.3126,0 0,-0.1943 0,-0.3573 0,-0.5201 z"
       id="path2679"
       style="clip-rule:evenodd;fill:#000000;fill-rule:nonzero;stroke-width:0.25568;image-rendering:optimizeQuality;shape-rendering:geometricPrecision;text-rendering:geometricPrecision" />
    <path
       class="fil0"
       d="m 763.77103,1243.8101 c -10.56111,0 -54.79886,0.8143 -63.50855,-0.9037 -17.14812,-3.3783 -21.44573,-19.0615 -26.67403,-33.7412 -2.56065,-7.1901 4.69576,-17.0544 12.10646,-17.3224 1.99576,-0.082 3.96664,-0.1103 5.9624,-0.1103 36.54834,-0.055 73.09916,-0.082 109.64998,-0.1102 10.49393,-0.01 11.20564,-0.5071 20.24381,3.8039 11.71826,5.5876 16.24978,20.1122 18.55909,32.3987 1.75687,9.3442 -4.91973,15.9958 -14.64471,16.3373 -20.05717,0.704 -40.38309,-0.071 -61.69445,-0.3547 z"
       id="path2681"
       style="clip-rule:evenodd;fill:#000000;fill-rule:nonzero;stroke-width:0.25568;image-rendering:optimizeQuality;shape-rendering:geometricPrecision;text-rendering:geometricPrecision" />
    <path
       class="fil0"
       d="m 1292.1329,650.32685 -43.964,0.63048 c -12.8331,0 -20.7315,-10.28995 -26.4923,-21.12631 -8.2718,-15.55708 -27.9233,-36.92507 -5.2383,-37.98375 23.3295,-1.04029 46.6342,-2.57183 69.9886,-2.24345 l 27.5549,-0.24683 c 13.7912,-0.0498 25.1785,13.31624 33.2063,24.10795 4.3474,5.84507 23.8372,29.76124 8.1398,34.17985 -8.3189,2.34066 -9.6901,1.85203 -17.7055,1.99652 -13.6867,0.16556 -27.3459,0.38617 -45.4919,0.68565 z"
       id="path2683"
       style="clip-rule:evenodd;fill:#000000;fill-rule:nonzero;stroke-width:0.25568;image-rendering:optimizeQuality;shape-rendering:geometricPrecision;text-rendering:geometricPrecision" />
    <path
       class="fil0"
       d="m 1136.8367,1450.9304 c -9.3566,-0.3442 -41.0475,-0.7014 -48.3437,-2.6822 -4.8476,-1.3135 -6.1167,-6.6778 -2.5134,-10.3714 4.9944,-5.1226 35.3041,-28.319 40.9032,-31.5239 6.1963,-3.5307 12.858,-5.7742 19.9601,-5.7453 8.1921,0.027 16.3817,-0.3835 24.5987,0.7119 l 44.7404,1.8048 c 6.037,0.1576 18.569,-0.1604 23.8222,1.0114 3.8273,0.8538 5.0093,5.5272 1.8913,10.3162 -4.1981,6.4519 -22.9438,18.8539 -29.3168,22.7682 -7.1868,4.4133 -16.098,11.6691 -24.3399,13.353 -13.5771,2.7767 -36.5259,0.6594 -51.3498,0 -0.052,0.1078 -0.052,0.2181 -0.052,0.3546 z"
       id="path2685"
       style="clip-rule:evenodd;fill:#000000;fill-rule:nonzero;stroke-width:0.25568;image-rendering:optimizeQuality;shape-rendering:geometricPrecision;text-rendering:geometricPrecision" />
    <path
       class="fil0"
       d="m 519.01888,1095.8208 44.01378,0.4913 c 17.89965,4.9046 8.3613,24.9591 2.54074,36.8883 -4.61365,9.4519 -15.56794,13.7838 -25.22077,13.6288 -23.51117,-0.3756 -52.36015,0.5438 -74.6022,-0.4098 -9.35669,-0.4019 -18.17836,-8.5876 -15.29421,-19.3741 3.26489,-12.2129 8.78434,-23.2804 19.54454,-29.4434 2.56811,-1.4711 8.83909,-1.5105 11.74315,-1.5315 12.44241,-0.055 24.88482,-0.027 37.32723,-0.027 -0.0524,-0.082 -0.0524,-0.1655 -0.0524,-0.2181 z"
       id="path2687"
       style="clip-rule:evenodd;fill:#000000;fill-rule:nonzero;stroke-width:0.25568;image-rendering:optimizeQuality;shape-rendering:geometricPrecision;text-rendering:geometricPrecision" />
    <path
       class="fil0"
       d="m 488.79378,767.69318 c -6.28093,0.0971 -33.20631,1.33977 -38.62373,-0.79335 -7.07724,-2.78987 -6.01466,-11.29346 -2.8518,-16.77338 8.19706,-14.20942 18.37993,-29.54846 35.95358,-30.97492 4.45936,-0.35464 8.91624,-0.4387 13.32334,-1.479 l 55.10992,-1.20579 c 7.9507,0.029 19.12896,6.89587 12.23586,19.26377 -20.34334,36.49424 -38.31515,31.82607 -75.17206,31.82607 0.0259,0.0553 0.0259,0.11027 0.0259,0.13928 z"
       id="path2689"
       style="clip-rule:evenodd;fill:#000000;fill-rule:nonzero;stroke-width:0.25568;image-rendering:optimizeQuality;shape-rendering:geometricPrecision;text-rendering:geometricPrecision" />
    <path
       class="fil0"
       d="m 1169.4184,503.89805 c 10.7926,-0.33363 23.9392,-2.01754 33.1541,2.27235 3.3968,1.58671 7.0499,2.32489 10.5238,3.88533 12.0592,5.41424 33.3879,17.05183 43.755,25.01163 4.5464,3.48866 5.6538,9.05001 -1.3488,10.45545 -19.124,3.83542 -53.7612,2.04118 -61.6148,4.51581 -3.5561,1.1191 -19.6839,1.13223 -24.5215,1.3135 -8.1896,0.30736 -18.5815,-5.60339 -25.4298,-10.12445 -5.8629,-3.87219 -33.5995,-21.63857 -36.8096,-25.28484 -3.1778,-3.6095 -0.5127,-7.40288 2.1251,-8.04649 l 25.273,-1.56044 14.7742,-1.77848 c 6.7139,-0.24682 13.4004,-0.40981 20.1144,-0.63047 0,0.0553 0,0 0,-0.0274 z"
       id="path2691"
       style="clip-rule:evenodd;fill:#000000;fill-rule:nonzero;stroke-width:0.25568;image-rendering:optimizeQuality;shape-rendering:geometricPrecision;text-rendering:geometricPrecision" />
    <path
       class="fil0"
       d="m 897.0591,560.37848 c -16.01587,1.37654 -33.5522,1.13486 -50.41664,1.4501 -13.92555,0.2627 -24.06362,-9.17873 -32.47967,-19.5396 -5.57917,-6.86697 -1.82405,-13.31099 3.36941,-13.8469 14.07983,-1.4501 28.90371,-1.02716 43.93663,-2.29862 18.36749,-1.55256 45.87517,-1.9072 64.85731,-1.94398 6.94784,-0.0274 13.19393,2.38006 18.92242,6.32055 4.33244,2.96588 25.16104,15.18142 18.14601,23.75331 -3.3495,4.09286 -7.56748,3.74084 -13.14168,3.80389 l -53.19379,2.29862 z"
       id="path2693"
       style="clip-rule:evenodd;fill:#000000;fill-rule:nonzero;stroke-width:0.25568;image-rendering:optimizeQuality;shape-rendering:geometricPrecision;text-rendering:geometricPrecision" />
    <path
       class="fil0"
       d="m 901.13026,1400.5814 45.38991,0.2468 c 9.63043,1.0061 10.96923,8.522 6.48001,13.1901 -7.5625,7.86 -23.66049,22.6999 -34.55257,23.2595 -13.75136,0.7066 -82.17466,0.1472 -92.07384,-3.8328 -3.58341,-1.4396 -2.30184,-7.9625 0.7789,-11.6586 8.37374,-10.0509 19.21108,-21.8803 32.9475,-21.7279 13.66177,0.1655 27.29616,0.055 40.95544,0.055 0.0772,0.1656 0.0772,0.3022 0.0772,0.4677 z"
       id="path2695"
       style="clip-rule:evenodd;fill:#000000;fill-rule:nonzero;stroke-width:0.25568;image-rendering:optimizeQuality;shape-rendering:geometricPrecision;text-rendering:geometricPrecision" />
    <path
       class="fil0"
       d="m 299.43523,1140.9999 -30.58593,-0.8485 c -8.55291,-1.3949 -12.51955,-9.0842 -10.00619,-17.5405 1.71457,-5.761 4.48176,-9.8486 6.01466,-13.4896 4.29761,-10.2085 16.67781,-12.8013 26.25846,-12.888 8.29412,-0.074 49.24457,-1.303 55.10993,0.8748 7.18424,2.6664 9.16508,10.8495 7.59484,15.9274 -10.09826,32.6484 -20.03477,28.2114 -54.41065,28.2114 0.0259,-0.082 0.0259,-0.1656 0.0259,-0.2469 z"
       id="path2697"
       style="clip-rule:evenodd;fill:#000000;fill-rule:nonzero;stroke-width:0.25568;image-rendering:optimizeQuality;shape-rendering:geometricPrecision;text-rendering:geometricPrecision" />
    <path
       class="fil0"
       d="m 825.82631,1301.2205 c 8.45088,0 16.92665,0.027 25.37754,-0.027 6.1988,-0.042 14.66462,4.0193 15.52812,11.8766 1.88876,17.1859 -10.28738,34.4899 -24.05615,35.1913 -14.08979,0.7172 -34.32114,-0.3914 -50.00107,-0.2731 -24.03376,0.1811 -13.56969,-23.0624 -13.48011,-23.9451 0.49272,-4.8153 2.7224,-8.9764 4.43199,-13.3267 2.55567,-6.5255 11.50674,-9.7672 17.57615,-9.6884 8.21697,0.1103 16.43393,0.027 24.62602,0.027 -0.002,0.055 -0.002,0.1102 -0.002,0.1655 z"
       id="path2699"
       style="clip-rule:evenodd;fill:#000000;fill-rule:nonzero;stroke-width:0.25568;image-rendering:optimizeQuality;shape-rendering:geometricPrecision;text-rendering:geometricPrecision" />
    <path
       class="fil0"
       d="m 1021.1721,1519.1797 c -14.8537,-1.3686 -29.63526,-3.4676 -44.55872,-3.5569 -3.86959,-0.025 -27.73164,-0.01 -14.49043,-9.4414 5.97485,-4.2558 43.47625,-18.6937 51.06615,-21.7017 13.6269,-5.4011 18.8328,-4.0429 31.5464,-3.5306 5.3602,0.2153 61.1147,1.4159 65.3227,3.8301 2.9289,1.6813 2.4934,5.3197 0.6221,6.4572 -10.2277,6.226 -18.1435,8.1384 -29.058,11.9581 -15.2992,5.3512 -43.3095,16.5527 -60.4502,15.9826 z"
       id="path2701"
       style="clip-rule:evenodd;fill:#000000;fill-rule:nonzero;stroke-width:0.25568;image-rendering:optimizeQuality;shape-rendering:geometricPrecision;text-rendering:geometricPrecision" />
    <path
       class="fil0"
       d="m 136.69846,1139.5498 c -8.70968,0 -17.39449,-0.027 -26.10417,0.027 -9.11531,0.066 -18.332651,-6.381 -16.745001,-16.3925 2.64526,-16.6683 10.665641,-26.6666 27.502711,-26.953 l 49.19977,-0.1078 c 7.71181,0.7724 15.76205,2.8451 15.86407,12.7252 0.0472,4.5342 -4.56387,16.1744 -6.58452,19.9205 -7.46296,13.8338 -20.67431,10.9809 -35.64253,10.9467 -2.48848,0 -4.97696,0 -7.46544,0 -0.0275,-0.055 -0.0275,-0.1103 -0.0275,-0.1655 z"
       id="path2703"
       style="clip-rule:evenodd;fill:#000000;fill-rule:nonzero;stroke-width:0.25568;image-rendering:optimizeQuality;shape-rendering:geometricPrecision;text-rendering:geometricPrecision" />
    <path
       class="fil0"
       d="m 562.04722,1239.951 c -8.48821,-0.2575 -23.73265,0.4335 -30.2251,-2.7084 -9.3343,-4.5185 -12.07909,-14.4538 -16.20251,-24.4363 -3.21263,-7.7812 0.16668,-17.8347 8.03531,-18.3601 13.79863,-0.9195 39.66889,-1.3162 52.77573,0.6278 9.49604,1.4081 17.07098,11.5956 20.45283,20.9346 3.23005,8.916 5.18102,14.6481 -1.1671,20.9608 -4.66839,4.6419 -27.0274,3.0473 -33.67165,2.7636 0,0.055 0,0.1365 0,0.2181 z"
       id="path2705"
       style="clip-rule:evenodd;fill:#000000;fill-rule:nonzero;stroke-width:0.25568;image-rendering:optimizeQuality;shape-rendering:geometricPrecision;text-rendering:geometricPrecision" />
    <path
       class="fil0"
       d="m 1039.0071,517.50064 c 13.1118,-0.89844 26.4699,-3.40459 38.3898,1.72331 8.2816,3.5622 26.5944,13.49488 33.6442,21.20774 2.3317,2.55082 3.6681,11.06491 -8.4757,11.16474 -13.1691,0.21809 -26.2585,1.479 -39.3504,2.70843 -4.9272,0.46761 -20.5897,1.25308 -25.171,-0.68302 -14.0375,-5.93176 -19.7137,-11.42743 -31.5714,-20.38549 -6.73376,-5.08587 -8.84896,-13.4765 2.1526,-14.61398 l 30.3819,-1.12436 z"
       id="path2707"
       style="clip-rule:evenodd;fill:#000000;fill-rule:nonzero;stroke-width:0.25568;image-rendering:optimizeQuality;shape-rendering:geometricPrecision;text-rendering:geometricPrecision" />
    <path
       class="fil0"
       d="m 200.62259,772.7554 -21.72196,-0.60158 c -6.70646,-1.15851 -8.41854,-8.25665 -1.78922,-15.87231 11.16831,-12.83026 19.39025,-23.35138 37.50889,-24.21829 l 20.84104,-1.33977 c 7.20664,-0.13654 14.41328,-0.16555 21.61744,-0.13654 6.86074,0.0137 10.97172,7.03509 7.0001,13.19015 -20.07459,31.11415 -31.84013,27.57033 -63.45629,28.9784 z"
       id="path2709"
       style="clip-rule:evenodd;fill:#000000;fill-rule:nonzero;stroke-width:0.25568;image-rendering:optimizeQuality;shape-rendering:geometricPrecision;text-rendering:geometricPrecision" />
    <path
       class="fil0"
       d="m 1052.1238,1403.5367 25.9997,0.4098 c 4.9421,0.7592 9.6304,7.4581 1.0626,15.7357 -12.2931,11.8767 -30.0285,22.6526 -47.1518,22.4399 l -35.04526,-0.7382 c -5.2606,-0.063 -8.4359,0.4755 -11.0438,-3.0368 -2.5881,-3.4887 1.1894,-8.0203 3.3967,-10.0142 10.3322,-9.3416 14.71186,-12.9826 26.20616,-20.769 4.9521,-3.4492 10.3944,-4.7627 16.3046,-4.5158 6.791,0.2731 13.505,0.3284 20.2711,0.4912 z"
       id="path2711"
       style="clip-rule:evenodd;fill:#000000;fill-rule:nonzero;stroke-width:0.25568;image-rendering:optimizeQuality;shape-rendering:geometricPrecision;text-rendering:geometricPrecision" />
    <path
       class="fil0"
       d="m 993.95564,449.30643 c 15.06276,0.24163 25.36506,-1.7417 38.70076,-2.18829 l 19.9079,2.7636 c 8.2692,2.90021 16.9267,4.2137 25.2208,6.8407 4.5016,1.42646 30.8522,8.98696 34.7093,11.62972 2.7,1.8494 1.197,5.75049 -5.7558,6.23911 -7.5252,0.52803 -36.4588,1.74696 -43.0558,3.55696 -7.1444,1.95974 -18.574,2.62699 -25.8428,0.35464 -1.8913,-0.60158 -3.7328,-1.6156 -5.6763,-1.91508 -7.7292,-1.22681 -47.14426,-16.83379 -53.55455,-19.34783 -7.38582,-2.89495 -6.81844,-7.61304 1.16709,-7.82582 4.7207,-0.16556 9.4637,-0.11028 14.1819,-0.11028 z"
       id="path2713"
       style="clip-rule:evenodd;fill:#000000;fill-rule:nonzero;stroke-width:0.25568;image-rendering:optimizeQuality;shape-rendering:geometricPrecision;text-rendering:geometricPrecision" />
    <path
       class="fil0"
       d="m 933.92099,1478.2958 c 10.25752,0.1708 23.48629,-0.016 33.4651,1.2321 6.70148,0.838 7.6048,8.7268 -1.4259,12.3679 l -35.53801,13.5736 c -7.44305,1.8468 -12.60167,3.2602 -20.52998,2.9292 -9.17503,-0.3836 -18.32766,-1.0955 -27.45044,-2.1621 l -21.56767,-0.9037 c -4.36729,-0.3677 -5.26563,-6.8906 -1.86636,-8.7846 9.43632,-5.2803 18.79301,-10.6446 28.7992,-14.6403 7.40572,-2.9238 10.25005,-5.0648 19.39025,-4.8704 8.9436,0.1918 17.85983,0.7119 26.77606,1.0954 -0.0498,0.027 -0.0498,0.082 -0.0498,0.1656 z"
       id="path2715"
       style="clip-rule:evenodd;fill:#000000;fill-rule:nonzero;stroke-width:0.25568;image-rendering:optimizeQuality;shape-rendering:geometricPrecision;text-rendering:geometricPrecision" />
    <path
       class="fil0"
       d="m 573.24539,623.2898 c 6.68655,0 13.40047,0 20.08951,0 10.33218,0 16.52104,12.23917 10.55117,25.0668 -4.753,10.21113 -13.89817,12.01851 -23.92676,12.20503 -7.00756,0.13135 -34.27386,1.56306 -40.12677,-0.18909 -14.50785,-4.34506 -4.64102,-27.89871 2.25457,-32.39875 3.60332,-2.3249 7.33604,-4.18744 11.7954,-4.18744 l 19.36288,-0.49387 z"
       id="path2717"
       style="clip-rule:evenodd;fill:#000000;fill-rule:nonzero;stroke-width:0.25568;image-rendering:optimizeQuality;shape-rendering:geometricPrecision;text-rendering:geometricPrecision" />
    <path
       class="fil0"
       d="m 672.52586,1342.1858 c -3.83723,-0.1102 -10.78259,-0.4387 -17.70554,-0.4912 -4.99439,-0.034 -10.9543,-5.8136 -10.49891,-12.0684 0.65198,-8.9266 3.35447,-24.7096 13.97283,-25.7236 9.98627,-0.9536 38.84022,-1.9124 47.43544,0.465 15.63015,4.3188 6.59945,37.0617 -9.27955,37.3244 -6.97273,0.1102 -13.89319,0.3021 -23.92675,0.4938 z"
       id="path2719"
       style="clip-rule:evenodd;fill:#000000;fill-rule:nonzero;stroke-width:0.25568;image-rendering:optimizeQuality;shape-rendering:geometricPrecision;text-rendering:geometricPrecision" />
    <path
       class="fil0"
       d="m 869.09105,1562.7143 -17.70554,-2.0254 c -6.45762,-0.3861 -33.4676,-0.8774 -37.01617,-2.7373 -2.81199,-1.4738 -1.54535,-5.761 3.18774,-6.8407 l 49.30429,-11.769 c 6.89559,-2.845 14.07486,-2.9816 21.30888,-2.8187 8.98342,0.2101 40.73645,1.4291 49.043,3.2286 3.98655,0.8642 4.29014,-0.6804 8.70969,1.3949 1.74193,0.817 1.0999,4.0718 -1.13973,4.8704 l -23.58832,7.1691 -39.45239,8.0728 c -3.68047,0.8249 -7.33605,1.5919 -12.64896,1.4527 z"
       id="path2721"
       style="clip-rule:evenodd;fill:#000000;fill-rule:nonzero;stroke-width:0.25568;image-rendering:optimizeQuality;shape-rendering:geometricPrecision;text-rendering:geometricPrecision" />
    <path
       class="fil0"
       d="m 765.66228,1530.0975 c 11.95218,0.1629 28.61256,2.3249 41.62981,3.1472 4.43946,0.2811 13.2014,-0.1155 16.27965,1.3135 3.38683,1.5736 1.82406,6.7908 -2.41134,8.0727 -4.77042,1.4501 -9.27955,3.8302 -14.33365,4.2426 -0.72664,0.055 -1.47816,0.2731 -2.17742,0.4913 -13.15412,4.064 -29.80704,5.7636 -43.54844,4.789 l -36.47119,-2.4904 c -15.10509,-0.9693 -15.06527,-8.4195 3.93927,-12.4257 10.17789,-2.1462 20.90573,-7.8757 31.88492,-7.2242 1.73447,0.1393 3.47143,0.084 5.20839,0.084 z"
       id="path2723"
       style="clip-rule:evenodd;fill:#000000;fill-rule:nonzero;stroke-width:0.25568;image-rendering:optimizeQuality;shape-rendering:geometricPrecision;text-rendering:geometricPrecision" />
    <path
       class="fil0"
       d="m 761.6185,1397.1873 c 9.42885,0 15.67494,-1.437 21.43827,3.7224 2.76221,2.4747 2.30682,6.2313 0.36332,9.2208 -6.55467,10.0824 -18.30777,19.9809 -30.56105,19.8391 -7.7342,-0.089 -27.86851,0.5464 -34.65709,-3.0657 -4.9247,-2.6218 -2.21475,-8.9817 0.9083,-12.8067 8.03779,-9.8486 17.31734,-16.4213 29.86178,-16.9651 4.22544,-0.1918 8.45089,-0.027 12.64895,-0.027 0,-0.029 0,0.027 0,0.082 z"
       id="path2725"
       style="clip-rule:evenodd;fill:#000000;fill-rule:nonzero;stroke-width:0.25568;image-rendering:optimizeQuality;shape-rendering:geometricPrecision;text-rendering:geometricPrecision" />
    <path
       class="fil0"
       d="m 715.99716,535.09626 c 15.47835,0 19.58684,-1.55255 32.47966,8.94755 3.18775,2.60073 5.54683,5.99218 7.44056,9.71464 1.5354,3.0263 -0.42553,7.6393 -5.46968,8.07276 -5.7036,0.54641 -11.37983,1.09545 -17.08343,1.53154 -10.48895,0.79072 -16.9391,1.34502 -27.2439,-2.24346 -4.22046,-1.46849 -22.4038,-18.40211 -11.7954,-23.31459 6.45263,-2.9869 13.81854,-2.3643 21.6697,-2.70844 z"
       id="path2727"
       style="clip-rule:evenodd;fill:#000000;fill-rule:nonzero;stroke-width:0.25568;image-rendering:optimizeQuality;shape-rendering:geometricPrecision;text-rendering:geometricPrecision" />
    <path
       class="fil0"
       d="m 959.52995,482.96614 c -2.77963,0 -6.69401,0.33888 -9.92904,-0.87479 l -39.71119,-15.62538 c -4.52406,-2.28549 -2.81945,-6.58325 -0.51761,-6.86959 19.86555,-2.45625 27.00003,-5.7794 47.87839,0.38354 8.81172,2.60072 27.38324,7.94404 34.08724,14.80312 1.5205,1.55519 0.6918,4.78902 -3.2674,5.09112 -8.91622,0.68302 -17.70554,2.70844 -26.64665,2.95537 -0.28618,0.0274 -0.54498,0.0274 -1.89374,0.13655 z"
       id="path2729"
       style="clip-rule:evenodd;fill:#000000;fill-rule:nonzero;stroke-width:0.25568;image-rendering:optimizeQuality;shape-rendering:geometricPrecision;text-rendering:geometricPrecision" />
    <path
       class="fil0"
       d="m 332.01941,1201.6415 c 11.11107,0 19.25836,-1.7758 25.19588,7.1428 2.88415,4.3346 9.13771,17.9293 1.53042,20.551 -6.52978,2.2487 -21.0426,1.8074 -28.09994,1.3398 -13.76628,-0.909 -20.10445,-16.6552 -18.74076,-23.8899 0.8859,-4.6997 4.98941,-4.86 8.94361,-4.9256 3.70784,-0.055 7.44056,-0.027 11.14591,-0.027 0.0275,-0.082 0.0275,-0.1366 0.0275,-0.1918 z"
       id="path2731"
       style="clip-rule:evenodd;fill:#000000;fill-rule:nonzero;stroke-width:0.25568;image-rendering:optimizeQuality;shape-rendering:geometricPrecision;text-rendering:geometricPrecision" />
    <path
       class="fil0"
       d="m 810.14389,435.24149 c -31.79533,1.36341 -18.37744,-0.82225 -42.12502,-6.89587 -2.23963,-0.57268 -12.50213,-2.76623 -12.31301,-5.80041 0.42304,-6.78028 23.82722,-2.68479 39.22097,-5.74787 4.95208,-0.98512 9.82452,-1.01139 14.77411,0.19183 5.54683,1.36867 11.27532,1.88881 16.72011,3.80389 3.14545,1.10597 15.0603,2.20931 21.59256,5.60864 1.92609,1.00351 2.57309,6.4414 -5.28802,6.37572 l -32.63644,2.40896 c 0.0524,0 0.0524,0.029 0.0524,0.0553 z"
       id="path2733"
       style="clip-rule:evenodd;fill:#000000;fill-rule:nonzero;stroke-width:0.25568;image-rendering:optimizeQuality;shape-rendering:geometricPrecision;text-rendering:geometricPrecision" />
    <path
       class="fil0"
       d="m 782.22561,1498.5736 c -4.93714,0 -14.5178,0.8721 -17.57614,-1.5053 -4.65844,-3.6226 0.14671,-7.3897 3.42166,-9.1393 24.2403,-12.9616 26.95026,-15.2051 54.54006,-13.1902 6.28839,0.4598 10.89706,4.8889 2.02313,10.973 -6.24609,4.2689 -12.93512,7.6892 -19.64905,11.0833 -5.75088,2.9028 -16.06066,2.162 -22.78454,2.162 0.0259,-0.1365 0.0259,-0.2731 0.0259,-0.3835 z"
       id="path2735"
       style="clip-rule:evenodd;fill:#000000;fill-rule:nonzero;stroke-width:0.25568;image-rendering:optimizeQuality;shape-rendering:geometricPrecision;text-rendering:geometricPrecision" />
    <path
       class="fil0"
       d="m 859.21427,487.34271 c -14.65467,0 -12.85799,0.54905 -26.56952,-6.23911 l -13.40048,-6.81443 c -2.51585,-1.72857 -2.76221,-7.21636 3.62821,-7.74439 23.15532,-1.91508 26.62924,-0.47548 46.76355,9.30482 7.47291,3.63051 8.81172,9.73565 2.10028,10.39766 -3.91438,0.43871 -7.90591,0.71191 -12.51955,1.09545 z"
       id="path2737"
       style="clip-rule:evenodd;fill:#000000;fill-rule:nonzero;stroke-width:0.25568;image-rendering:optimizeQuality;shape-rendering:geometricPrecision;text-rendering:geometricPrecision" />
    <path
       class="fil0"
       d="m 561.37284,497.82443 c -8.93614,0 -13.39301,-0.50175 -21.90362,-6.8407 -5.06903,-3.77499 -5.51696,-9.72514 -1.73696,-10.42655 4.61365,-0.84852 9.27955,-1.50527 13.92057,-2.24345 6.68655,0.82225 13.81605,1.5867 19.64905,6.23911 1.58019,1.25834 3.24001,2.40896 4.77042,3.74873 2.63033,2.31176 3.01356,8.08064 -6.11668,9.08415 -2.46111,0.22056 -4.9496,0.24683 -8.5778,0.43871 z"
       id="path2739"
       style="clip-rule:evenodd;fill:#000000;fill-rule:nonzero;stroke-width:0.25568;image-rendering:optimizeQuality;shape-rendering:geometricPrecision;text-rendering:geometricPrecision" />
    <path
       class="fil0"
       d="m 663.81618,1587.9729 c -4.46932,-0.289 -12.37025,0.465 -12.67633,-3.5858 -0.16668,-2.212 1.60507,-3.1262 3.21512,-3.557 13.08444,-3.5149 37.6358,-7.839 48.9136,-2.2986 2.06793,1.0166 0.42802,5.2251 -7.10213,5.3906 -10.48148,0.2312 -17.23273,4.0534 -32.35026,4.0534 z"
       id="path2741"
       style="clip-rule:evenodd;fill:#000000;fill-rule:nonzero;stroke-width:0.25568;image-rendering:optimizeQuality;shape-rendering:geometricPrecision;text-rendering:geometricPrecision" />
  </g>
</svg>
