<?xml version="1.0" encoding="UTF-8" standalone="no"?>
<!-- Created with Inkscape (http://www.inkscape.org/) -->

<svg
   width="2000"
   height="2000"
   viewBox="0 0 2000 2000"
   version="1.1"
   id="SVGRoot"
   xmlns="http://www.w3.org/2000/svg"
   xmlns:svg="http://www.w3.org/2000/svg">
  <defs
     id="defs4313" />
  <g
     id="layer1">
    <path
       class="fil0"
       d="m 990.30342,1164.3919 c 45.65688,0 586.49878,-1.326 606.71528,1.6352 9.2106,1.3504 9.5594,12.9003 7.9964,20.5118 -21.5981,105.1234 12.3829,107.0825 -54.7511,107.1169 l -384.98,0.4616 c -17.8163,0.093 -29.0363,-0.2017 -30.0411,29.361 l -37.991,405.7948 c -3.1213,15.3705 -17.6441,12.9546 -33.1437,12.8415 -37.991,-0.2796 -253.0234,-1.9839 -274.74711,1.5863 -49.62029,8.1566 -37.70713,-13.5438 -25.53824,-104.8139 l 32.17638,-330.8579 c -1.17694,-14.565 -16.74648,-13.8236 -26.79425,-13.8088 -128.42586,0.2896 -267.80667,-1.154 -394.77185,0.6139 -12.35507,0.4861 -21.28648,-3.521 -17.9791,-18.1056 4.34019,-19.1421 4.79125,-47.3588 9.3036,-66.9573 6.85198,-29.7835 -4.4658,-45.5467 30.2364,-45.5271 l 594.26279,0.6628 c 0.051,-0.3585 0.051,-0.4612 0.051,-0.5105 z"
       id="path2637"
       style="clip-rule:evenodd;fill:#d45500;fill-rule:nonzero;stroke-width:0.477947;image-rendering:optimizeQuality;shape-rendering:geometricPrecision;text-rendering:geometricPrecision" />
    <path
       class="fil0"
       d="m 1040.5981,620.6359 c -47.43858,0 -94.87738,0 -142.31599,0 -24.31945,0 -30.38987,-0.79064 -27.81283,-26.39497 l 14.00643,-137.6516 9.34995,-95.19375 c 2.83763,-32.79851 7.11724,-65.29255 8.4338,-98.26293 0.34396,-8.64282 0.91634,-17.44277 8.91739,-19.59366 12.8854,-3.46695 26.71497,-2.1165 40.26567,-2.14598 l 267.91348,-1.58615 c 33.4742,-0.2798 27.5013,13.93655 23.017,57.34214 l -7.9452,86.44783 c -2.2608,28.68825 -7.8382,66.72156 -9.0617,92.17858 -1.3954,29.00745 -11.9364,105.16736 -11.3875,125.9887 0.5443,20.86061 -18.2069,18.67044 -32.5159,18.67044 -46.9548,0 -93.9562,0 -140.9111,0 0.052,0.25526 0.052,0.20156 0.052,0.20156 z"
       id="path2639"
       style="clip-rule:evenodd;fill:#d45500;fill-rule:nonzero;stroke-width:0.477947;image-rendering:optimizeQuality;shape-rendering:geometricPrecision;text-rendering:geometricPrecision" />
    <path
       class="fil0"
       d="m 1475.3473,967.04585 -57.8541,-0.1523 c -12.0665,-0.7514 -15.9555,-10.4746 -15.9415,-21.7396 0.018,-15.85669 -0.7769,-75.88005 1.7445,-88.28938 2.4235,-11.93299 12.8714,-12.26689 22.3888,-12.37494 l 115.7591,-0.56476 c 21.3097,0.0409 21.0725,-9.03566 21.2259,-22.71194 0.3863,-37.80251 0.7257,-75.60491 1.1166,-113.40742 0.2742,-27.57358 1.1303,-28.93874 30.6736,-28.89947 l 73.9445,1.02144 c 11.5364,1.13435 11.5224,13.47491 11.6293,24.7057 l 1.5492,126.65162 c 1.6699,12.5125 15.8578,12.2964 25.1473,12.42897 l 101.804,0.5105 c 30.7527,0 32.8832,1.35038 33.0972,38.31325 0.1309,22.37804 0.7119,48.61585 -1.8886,70.59113 -1.7723,14.9727 -25.0219,12.9937 -35.0325,13.0969 -23.5332,0.2403 -94.0865,-0.2308 -113.0006,1.6892 -11.9039,1.2081 -11.3176,11.1424 -11.341,22.8642 -0.1439,38.77465 -0.2417,77.54955 -0.3396,116.37335 -0.052,38.8438 -9.3781,22.8987 -84.1178,26.2969 -7.8476,0.3585 -15.7974,-0.6139 -23.645,-1.3799 -8.6848,-0.8055 -9.5315,-13.2345 -9.499,-20.4629 0.144,-32.2042 2.4423,-105.7517 -0.1439,-133.96845 -1.2095,-13.2049 -16.4719,-11.2896 -29.5108,-11.2504 -16.5742,0.098 -33.3391,0.3535 -57.7609,0.658 z"
       id="path2643"
       style="clip-rule:evenodd;fill:#d45500;fill-rule:nonzero;stroke-width:0.477947;image-rendering:optimizeQuality;shape-rendering:geometricPrecision;text-rendering:geometricPrecision" />
    <path
       class="fil0"
       d="m 662.78659,886.01947 c 0,-59.38994 0,-118.77488 0,-178.21884 0,-13.74995 1.65604,-17.08912 16.22999,-17.03509 l 51.60662,0.82001 c 4.31233,0.5105 7.5126,2.55843 10.36892,6.39369 l 92.98865,132.33335 50.78338,73.76355 c 1.46517,2.46025 16.42064,25.11818 19.33266,15.24276 0.535,-1.84147 1.30722,-3.78612 1.20945,-5.62771 l 0.58155,-213.51194 c 1.03728,-8.23029 7.71262,-9.41871 13.61573,-9.3598 l 58.48648,1.53708 c 7.8335,0.95756 8.0801,14.76641 8.1407,21.43522 l 1.991,351.98335 c 0.1626,20.2127 -4.5542,21.5238 -19.9608,21.7397 -62.72904,0.8742 -50.65773,5.3085 -76.27038,-32.4301 L 848.52219,993.80425 762.51115,868.73389 c -1.99102,-2.76477 -7.33596,-15.67984 -13.66696,-11.96738 -3.27019,1.91513 -3.15391,7.01735 -3.14925,10.69054 l 0.0972,191.46285 c -0.0187,16.8536 0.5907,28.2119 -18.90011,28.1825 -8.99647,-0.018 -51.41128,0.82 -57.08186,-1.1786 -7.19164,-2.5338 -7.6429,-8.8196 -7.55915,-15.6553 l 0.33965,-184.09684 c 0.33985,-0.15231 0.2419,-0.15231 0.19535,-0.15231 z"
       id="path2645"
       style="clip-rule:evenodd;fill:#000000;fill-rule:nonzero;stroke-width:0.477947;image-rendering:optimizeQuality;shape-rendering:geometricPrecision;text-rendering:geometricPrecision" />
    <path
       class="fil0"
       d="m 1066.8155,886.42703 c -2.1258,-61.56532 -0.921,-119.20208 -1.163,-181.08166 -0.049,-11.71201 3.1028,-14.73215 13.8577,-14.73215 l 245.4782,1.12452 c 6.3404,1.14427 7.5127,8.24017 7.5127,14.01519 l -0.3863,51.5082 c -1.0328,10.95578 -9.6664,10.83786 -16.7649,10.84285 -48.3599,0.10328 -96.7195,0.25526 -145.0746,0.35854 -16.0952,0.0204 -21.24,0.72683 -20.9843,20.30571 l 0.6281,48.5422 c 1.0652,11.9281 14.5461,11.03432 25.487,10.94591 l 128.3096,-1.22769 c 8.8197,-0.15231 13.0342,3.22148 13.0342,12.84153 l -0.4836,58.8742 c -1.5072,6.00089 -7.6381,6.35443 -12.5969,6.44783 l -146.3862,1.48295 c -7.3313,1.42903 -8.685,9.68394 -8.7221,16.42139 -0.078,13.5436 -1.5306,47.1328 1.2094,58.72195 1.7861,7.5478 9.1034,6.983 13.7598,6.9585 20.17,-0.1078 152.2197,-3.2116 164.4585,0.9723 7.2242,2.4701 7.1451,8.7557 7.1218,15.8075 l -0.8745,52.9421 c -1.3444,9.129 -12.0062,8.4857 -19.9655,8.4906 l -225.9965,0.4077 c -26.2127,0.03 -21.7422,-3.7517 -21.5143,-31.7131 l -0.4371,-66.24045 c -0.049,-34.3747 0,-68.70049 0,-103.0753 0.1533,0.0545 0.3022,0.0545 0.4931,0.0545 z"
       id="path2647"
       style="clip-rule:evenodd;fill:#000000;fill-rule:nonzero;stroke-width:0.477947;image-rendering:optimizeQuality;shape-rendering:geometricPrecision;text-rendering:geometricPrecision" />
    <path
       class="fil0"
       d="m 214.42646,889.0346 0.6279,-189.93073 c 0.90718,-9.36967 12.60163,-7.63613 22.82156,-7.62138 15.79742,0.0511 31.59484,0.15231 47.4388,0.20611 13.75052,0.059 12.45732,6.39369 12.59695,20.35974 0.0973,83.43262 0.24172,166.91439 0.33966,250.34211 0.0299,42.76725 -2.94454,43.12065 22.67725,43.12065 36.73042,0 73.46064,0.05 110.18638,0.05 13.55517,0 23.90539,-1.7138 23.59845,17.649 -0.9956,63.5297 4.25625,64.1581 -24.66377,64.1434 -64.64083,-0.05 -129.28183,-0.05 -193.91797,-0.1533 -21.0446,-0.021 -22.0959,-1.5763 -22.0959,-20.0011 0,-59.39 0,-118.77495 0,-178.21886 0.19086,0.0545 0.28825,0.0545 0.3862,0.0545 z"
       id="path2657"
       style="clip-rule:evenodd;fill:#000000;fill-rule:nonzero;stroke-width:0.477947;image-rendering:optimizeQuality;shape-rendering:geometricPrecision;text-rendering:geometricPrecision" />
    <path
       class="fil0"
       d="m 499.44469,886.6824 0.2931,-187.01388 c 0.8326,-8.26956 8.26146,-8.33834 15.45777,-8.33834 l 58.53319,0.71695 c 7.21015,1.16391 7.06136,10.65128 7.12172,17.18741 l 0.53034,368.14966 c -1.66987,9.4481 -10.12685,9.6495 -16.57412,9.6151 -11.21087,-0.054 -51.75561,0.9869 -59.74732,-2.5585 -6.18688,-2.745 -6.00069,-9.1388 -6.01004,-16.6226 l -0.0486,-181.18483 c 0.19516,0.0545 0.33965,0.0545 0.43704,0.0545 z"
       id="path2673"
       style="clip-rule:evenodd;fill:#000000;fill-rule:nonzero;stroke-width:0.477947;image-rendering:optimizeQuality;shape-rendering:geometricPrecision;text-rendering:geometricPrecision" />
  </g>
</svg>
