<?xml version="1.0" encoding="UTF-8"?>
<svg version="1.1" xmlns="http://www.w3.org/2000/svg" width="512" height="512">
<path d="M0 0 C1.01690918 0.57830566 2.03381836 1.15661133 3.08154297 1.75244141 C7.33649592 4.17849315 11.57743423 6.61692148 15.7421875 9.1953125 C16.77601563 9.83210938 17.80984375 10.46890625 18.875 11.125 C20.14730469 11.94097656 20.14730469 11.94097656 21.4453125 12.7734375 C24.39061988 14.0214491 25.68915018 13.57650014 28.75 12.75 C31.06383597 11.6806627 31.06383597 11.6806627 33.33984375 10.30859375 C34.20005127 9.81085449 35.06025879 9.31311523 35.9465332 8.80029297 C36.85105225 8.26807129 37.75557129 7.73584961 38.6875 7.1875 C39.62102295 6.64754395 40.5545459 6.10758789 41.51635742 5.55126953 C45.67968022 3.14139647 49.8278939 0.70749233 53.9609375 -1.75390625 C62.21244391 -6.64015196 68.82970012 -10.22697679 78.6484375 -8.79296875 C81.90071508 -7.95269629 84.14292684 -6.32380819 86.75 -4.25 C87.96623047 -3.36441406 87.96623047 -3.36441406 89.20703125 -2.4609375 C91.97283498 -0.05626022 93.41402998 2.11855279 95.1875 5.3125 C95.78304688 6.3746875 96.37859375 7.436875 96.9921875 8.53125 C97.57226562 9.5934375 98.15234375 10.655625 98.75 11.75 C99.26820313 12.6884375 99.78640625 13.626875 100.3203125 14.59375 C101.80899683 17.30611727 103.28196433 20.02640751 104.75 22.75 C105.85243773 24.79260076 106.9565667 26.83428975 108.0625 28.875 C108.55363281 29.78507812 109.04476563 30.69515625 109.55078125 31.6328125 C110.57940707 33.66832892 110.57940707 33.66832892 111.75 34.75 C114.67291164 34.8734441 117.57576957 34.93620965 120.5 34.9609375 C122.32422728 34.98903471 124.1484459 35.01769931 125.97265625 35.046875 C128.85139459 35.08793698 131.72997608 35.12481532 134.60888672 35.15136719 C137.3854345 35.17920466 140.16124292 35.22510668 142.9375 35.2734375 C143.78473633 35.27669037 144.63197266 35.27994324 145.50488281 35.28329468 C154.23493832 35.46032798 161.55746301 37.41345052 167.75 43.75 C172.67857559 50.63736845 172.86490512 56.8952368 172.78515625 65.03125 C172.78886747 66.8606827 172.7947944 68.69011201 172.80273438 70.51953125 C172.81331007 73.39070944 172.81237495 76.25939678 172.77416992 79.13037109 C172.74105913 81.91120079 172.75861584 84.68793086 172.78515625 87.46875 C172.75132591 88.75174988 172.75132591 88.75174988 172.71681213 90.06066895 C172.76642975 92.52590056 172.90693955 94.43041952 173.75 96.75 C176.13522515 99.03900616 178.77505744 100.35606292 181.75 101.75 C182.76513672 102.32476074 183.78027344 102.89952148 184.82617188 103.49169922 C185.78072266 104.00748535 186.73527344 104.52327148 187.71875 105.0546875 C189.31783203 105.93060547 189.31783203 105.93060547 190.94921875 106.82421875 C193.14646325 108.02295214 195.34699091 109.21568741 197.55078125 110.40234375 C214.75856705 119.86974706 214.75856705 119.86974706 217.34765625 128.65234375 C218.84960535 136.4828939 217.29828638 141.74245236 213.75 148.75 C213.1560097 150.09952609 212.57156486 151.45332424 212 152.8125 C211.5875 153.781875 211.175 154.75125 210.75 155.75 C210.09 155.75 209.43 155.75 208.75 155.75 C208.48445313 156.60851562 208.21890625 157.46703125 207.9453125 158.3515625 C206.73976199 161.77910808 205.27755614 164.89173798 203.625 168.125 C202.81675781 169.71441406 202.81675781 169.71441406 201.9921875 171.3359375 C201.37730469 172.53089844 201.37730469 172.53089844 200.75 173.75 C200.09 173.75 199.43 173.75 198.75 173.75 C198.12998564 175.40337163 197.55566201 177.07390475 197 178.75 C196.51273437 180.1421875 196.51273437 180.1421875 196.015625 181.5625 C195.63866694 186.08599674 197.53636734 188.9708631 199.75 192.75 C200.24145508 193.62914062 200.73291016 194.50828125 201.23925781 195.4140625 C202.89290868 198.36909534 204.56871515 201.31061085 206.25 204.25 C219.4641422 227.35227582 219.4641422 227.35227582 217.32421875 237.8359375 C215.13819131 244.62201042 210.64696252 249.95388324 204.625 253.6875 C201.99107739 254.66090618 199.49284539 255.20143092 196.75 255.75 C196.42 256.41 196.09 257.07 195.75 257.75 C191.64110869 260.83166849 187.8665305 262.97476811 182.75 263.75 C182.42 264.41 182.09 265.07 181.75 265.75 C180.08927151 266.43132451 178.422233 267.09742127 176.75 267.75 C176.09 268.41 175.43 269.07 174.75 269.75 C174.42 269.75 174.09 269.75 173.75 269.75 C173.73541748 270.98041016 173.72083496 272.21082031 173.70581055 273.47851562 C173.64756279 278.07092435 173.57033232 282.66285627 173.48754883 287.25488281 C173.4544236 289.2372256 173.42635356 291.21965989 173.40356445 293.20214844 C173.36978946 296.06224329 173.31746312 298.92150892 173.26171875 301.78125 C173.25532883 302.65865845 173.2489389 303.53606689 173.24235535 304.44006348 C173.06298627 312.05432849 171.49185444 318.47592951 166.1875 324.25 C165.58808594 324.9203125 164.98867188 325.590625 164.37109375 326.28125 C162.75 327.75 162.75 327.75 160.75 327.75 C160.42 328.41 160.09 329.07 159.75 329.75 C157.77 329.75 155.79 329.75 153.75 329.75 C153.42 330.41 153.09 331.07 152.75 331.75 C151.5539917 331.74476318 150.3579834 331.73952637 149.12573242 331.73413086 C144.69214627 331.71604288 140.25856339 331.70455405 135.82495117 331.69506836 C133.90534924 331.69003685 131.98575114 331.68321102 130.06616211 331.67456055 C127.30842136 331.66244331 124.55073124 331.65675989 121.79296875 331.65234375 C120.93350143 331.64718246 120.07403412 331.64202118 119.18852234 331.63670349 C118.38791885 331.63662796 117.58731537 331.63655243 116.76245117 331.63647461 C116.0585173 331.634254 115.35458344 331.63203339 114.62931824 331.62974548 C112.52178344 331.68440466 112.52178344 331.68440466 109.75 332.75 C109.0182967 334.72713296 108.36159678 336.7324783 107.75 338.75 C105.69996911 342.91943187 103.3964279 346.94762025 101.125 351 C100.53332031 352.08152344 99.94164062 353.16304688 99.33203125 354.27734375 C89.24567557 372.33693093 89.24567557 372.33693093 82.65893555 374.99951172 C74.35305224 377.14238081 68.20842806 375.58930153 60.75 371.75 C59.40087819 371.15509204 58.04708565 370.57058916 56.6875 370 C55.718125 369.5875 54.74875 369.175 53.75 368.75 C53.75 368.09 53.75 367.43 53.75 366.75 C49.295 365.265 49.295 365.265 44.75 363.75 C44.75 363.09 44.75 362.43 44.75 361.75 C43.87730469 361.5025 43.00460937 361.255 42.10546875 361 C38.56974172 359.68284907 36.11247569 357.94698113 33.0625 355.75 C30.02270901 353.75321104 30.02270901 353.75321104 26.75 352.75 C23.35929267 353.68896511 21.07939334 355.05999449 18.22265625 357.09375 C15.63409678 358.82763501 13.76779302 359.20417309 10.75 359.75 C10.42 360.41 10.09 361.07 9.75 361.75 C8.76 361.75 7.77 361.75 6.75 361.75 C6.75 362.41 6.75 363.07 6.75 363.75 C5.76 363.75 4.77 363.75 3.75 363.75 C3.42 364.41 3.09 365.07 2.75 365.75 C0.75 366.41666667 -1.25 367.08333333 -3.25 367.75 C-3.58 368.41 -3.91 369.07 -4.25 369.75 C-5.91072849 370.43132451 -7.577767 371.09742127 -9.25 371.75 C-9.91 372.41 -10.57 373.07 -11.25 373.75 C-12.57 373.75 -13.89 373.75 -15.25 373.75 C-15.58 374.41 -15.91 375.07 -16.25 375.75 C-17.85407328 375.77708567 -19.4582785 375.79643483 -21.0625 375.8125 C-22.40248047 375.82990234 -22.40248047 375.82990234 -23.76953125 375.84765625 C-26.25 375.75 -26.25 375.75 -29.25 374.75 C-29.58 375.41 -29.91 376.07 -30.25 376.75 C-30.25 375.76 -30.25 374.77 -30.25 373.75 C-30.930625 373.564375 -31.61125 373.37875 -32.3125 373.1875 C-38.77703 370.02400659 -42.63176888 364.66327042 -45.87109375 358.3984375 C-47.56507078 355.1448499 -49.40742541 351.98317244 -51.25 348.8125 C-54.48647105 343.23350252 -57.40508783 337.53820118 -60.25 331.75 C-61.48041016 331.73018066 -62.71082031 331.71036133 -63.97851562 331.68994141 C-68.57083595 331.61350865 -73.16285491 331.52485087 -77.75488281 331.43261719 C-79.73724388 331.39448243 -81.7196705 331.35960331 -83.70214844 331.328125 C-86.56208624 331.28213605 -89.42157882 331.22419928 -92.28125 331.1640625 C-93.15865845 331.15251129 -94.03606689 331.14096008 -94.94006348 331.12905884 C-100.341073 331.00134188 -105.05528929 330.24847424 -110.25 328.75 C-110.25 328.09 -110.25 327.43 -110.25 326.75 C-110.806875 326.523125 -111.36375 326.29625 -111.9375 326.0625 C-117.50835557 322.90066306 -119.77466513 319.16785059 -121.63442993 313.27420044 C-122.65612927 309.08463041 -122.73024848 304.97939764 -122.76171875 300.68359375 C-122.77966995 299.76409439 -122.79762115 298.84459503 -122.81611633 297.89723206 C-122.86979261 294.99403308 -122.90397681 292.09099439 -122.9375 289.1875 C-122.97071084 287.20505602 -123.00520392 285.22263308 -123.04101562 283.24023438 C-123.125494 278.41027276 -123.19250712 273.58035514 -123.25 268.75 C-126.22 267.43 -129.19 266.11 -132.25 264.75 C-132.25 264.09 -132.25 263.43 -132.25 262.75 C-136.705 261.265 -136.705 261.265 -141.25 259.75 C-141.25 259.09 -141.25 258.43 -141.25 257.75 C-142.425625 257.440625 -142.425625 257.440625 -143.625 257.125 C-151.43915897 254.16100867 -161.00455988 249.20626007 -165.4140625 241.79296875 C-168.05118031 235.42948881 -167.39710828 229.18389541 -165.25 222.75 C-162.53554889 217.23063528 -159.37980133 211.95562994 -156.24589539 206.66711426 C-154.84778138 204.29206802 -153.47854678 201.90105862 -152.11401367 199.5065918 C-151.40725024 198.2839091 -150.68622819 197.06936871 -149.9519043 195.86303711 C-145.43776775 188.89156455 -145.43776775 188.89156455 -144.77368164 180.96923828 C-146.06398838 178.35938559 -147.55170158 176.11179405 -149.25 173.75 C-150.09139635 172.2204359 -150.91133705 170.67882911 -151.70703125 169.125 C-152.89842402 166.90763098 -154.09370623 164.69253307 -155.29492188 162.48046875 C-158.25 156.96763393 -158.25 156.96763393 -158.25 154.75 C-158.91 154.75 -159.57 154.75 -160.25 154.75 C-168.80671102 137.81974914 -168.80671102 137.81974914 -166.3125 128.1875 C-162.638011 119.0397621 -154.25424683 114.11803616 -145.875 109.75 C-144.52341797 109.01716797 -144.52341797 109.01716797 -143.14453125 108.26953125 C-136.5688244 104.75 -136.5688244 104.75 -134.25 104.75 C-133.92 104.09 -133.59 103.43 -133.25 102.75 C-131.594389 101.81606559 -129.90049478 100.94897217 -128.1875 100.125 C-126.80884766 99.45597656 -126.80884766 99.45597656 -125.40234375 98.7734375 C-124.33693359 98.26683594 -124.33693359 98.26683594 -123.25 97.75 C-123.2406543 96.53006348 -123.23130859 95.31012695 -123.22167969 94.05322266 C-123.18152691 89.48678313 -123.11569982 84.92099954 -123.04248047 80.35498047 C-123.01441661 78.38631679 -122.99313021 76.41754349 -122.97900391 74.44873047 C-122.95737095 71.60327617 -122.9106193 68.75911987 -122.859375 65.9140625 C-122.85814636 65.04697662 -122.85691772 64.17989075 -122.85565186 63.28652954 C-122.68045376 55.8221782 -120.84057853 49.00618004 -116.13671875 43.09375 C-115.41097656 42.4853125 -114.68523437 41.876875 -113.9375 41.25 C-113.21949219 40.6209375 -112.50148437 39.991875 -111.76171875 39.34375 C-105.71417469 35.50642811 -99.33165738 35.42693618 -92.37890625 35.3359375 C-91.456577 35.31657135 -90.53424774 35.2972052 -89.58396912 35.2772522 C-86.66023789 35.2178388 -83.73646647 35.17122491 -80.8125 35.125 C-78.8209471 35.08678498 -76.8294101 35.04773123 -74.83789062 35.0078125 C-69.97539077 34.91216896 -65.11281362 34.82799779 -60.25 34.75 C-59.85731934 34.00951416 -59.46463867 33.26902832 -59.06005859 32.50610352 C-57.57651147 29.71404428 -56.08870618 26.92430627 -54.59814453 24.13598633 C-53.64684777 22.35343854 -52.70031974 20.5683484 -51.75390625 18.78320312 C-38.98038275 -5.08311711 -38.98038275 -5.08311711 -32.33984375 -8.125 C-19.82924927 -11.5961476 -10.5660461 -6.09692931 0 0 Z " fill="#138DF0" transform="translate(230.25,72.25)"/>
<path d="M0 0 C3.60095308 1.63679686 6.28906288 3.38802163 8 7 C8.47347161 10.3007735 8.05979893 12.8461985 7 16 C5.26124859 18.30584049 5.26124859 18.30584049 3.04777527 20.66871643 C2.2323847 21.5427669 1.41699413 22.41681736 0.57689476 23.3173542 C-3.57998841 27.64482824 -7.77403134 31.92980164 -12.0144043 36.17553711 C-12.98153968 37.14731663 -13.94848334 38.11928699 -14.91525269 39.09143066 C-17.50967147 41.69880418 -20.10727218 44.30298299 -22.70593619 46.90612483 C-24.33316028 48.53630151 -25.9598049 50.16705432 -27.58628273 51.79797554 C-32.68734927 56.91265938 -37.79037048 62.02538071 -42.89630765 67.13520235 C-48.77057731 73.01396785 -54.63821596 78.89924896 -60.50028485 84.79018015 C-65.05063451 89.36214948 -69.60673583 93.92833462 -74.16723949 98.49017531 C-76.88389963 101.20788133 -79.59809583 103.92794192 -82.30631065 106.65406609 C-84.84838504 109.21263072 -87.39753805 111.76392505 -89.95225143 114.30986786 C-91.33012955 115.68661082 -92.70058634 117.07076881 -94.07078552 118.45515442 C-98.93106549 123.28275358 -102.99908724 127.13023636 -109.875 128.625 C-118.75301198 126.8493976 -126.58818365 115.55802109 -132.90234375 109.23046875 C-134.03180112 108.10168627 -135.16140679 106.97305216 -136.29115295 105.84455872 C-138.64177288 103.49540344 -140.99059853 101.14447305 -143.33813477 98.79223633 C-146.34984833 95.77478656 -149.36608298 92.76190201 -152.38364315 89.75030041 C-154.70937067 87.42817829 -157.03272141 85.10368995 -159.35534859 82.77846718 C-160.46741884 81.66572964 -161.58023298 80.55373503 -162.69379997 79.44249535 C-164.24222409 77.89660164 -165.78742241 76.34755509 -167.33178711 74.79760742 C-168.65127602 73.47692513 -168.65127602 73.47692513 -169.99742126 72.12956238 C-173.03728265 68.89694319 -173.39181943 66.55846731 -173.359375 62.10546875 C-172.72418186 58.38406547 -170.66020984 56.59687151 -168 54 C-165.13391871 52.56695936 -163.18699217 52.69355845 -160 53 C-153.62412826 56.46406586 -148.84582194 61.90168193 -143.7890625 67.015625 C-142.81158636 67.99683675 -141.83366366 68.97760383 -140.85531616 69.95794678 C-138.29617405 72.52468221 -135.74309853 75.09736877 -133.19128418 77.67138672 C-130.58041315 80.30280938 -127.96378785 82.92849664 -125.34765625 85.5546875 C-120.22615559 90.69756207 -115.11105699 95.84674399 -110 101 C-104.29691398 96.25941698 -99.04925419 91.17948457 -93.82348633 85.92114258 C-92.45446229 84.54987717 -91.08543813 83.17861188 -89.71640909 81.80735147 C-88.25802462 80.34561445 -86.80089482 78.88263738 -85.34412575 77.41929054 C-82.29979944 74.36135801 -79.25158732 71.3073185 -76.20280457 68.25382996 C-69.73639049 61.776356 -63.27423271 55.29464344 -56.8125 48.8125 C-49.82468598 41.80263924 -42.8361307 34.79352683 -35.84269351 27.78927535 C-32.81334044 24.75494793 -29.78644026 21.71820119 -26.76141131 18.67956316 C-24.43902694 16.34796134 -22.11341211 14.01958507 -19.78833008 11.69067383 C-18.53599579 10.43059006 -18.53599579 10.43059006 -17.25836182 9.14505005 C-16.48887711 8.37549484 -15.7193924 7.60593964 -14.92658997 6.81306458 C-14.26092923 6.14518323 -13.5952685 5.47730188 -12.90943623 4.78918171 C-8.51610008 0.67253379 -6.2138546 -0.65408996 0 0 Z " fill="#FAFCFE" transform="translate(344,192)"/>
<path d="M0 0 C0.66 0.66 1.32 1.32 2 2 C-1.20726751 3.77276876 -4.41600247 5.54286506 -7.625 7.3125 C-8.52863281 7.81201172 -9.43226563 8.31152344 -10.36328125 8.82617188 C-14.86823294 11.30882774 -19.37468257 13.7488073 -24 16 C-24.33 15.34 -24.66 14.68 -25 14 C-16.75 9.38 -8.5 4.76 0 0 Z " fill="#2ABAEF" transform="translate(280,73)"/>
<path d="" fill="#186AD2" transform="translate(0,0)"/>
<path d="" fill="#186AD2" transform="translate(0,0)"/>
<path d="" fill="#1869D1" transform="translate(0,0)"/>
<path d="" fill="#186AD1" transform="translate(0,0)"/>
<path d="" fill="#1869D1" transform="translate(0,0)"/>
<path d="" fill="#1769D1" transform="translate(0,0)"/>
<path d="" fill="#1769D1" transform="translate(0,0)"/>
<path d="" fill="#1668D1" transform="translate(0,0)"/>
<path d="" fill="#1668D1" transform="translate(0,0)"/>
<path d="" fill="#1668D2" transform="translate(0,0)"/>
<path d="" fill="#1668D2" transform="translate(0,0)"/>
<path d="" fill="#1668D1" transform="translate(0,0)"/>
<path d="" fill="#1669D2" transform="translate(0,0)"/>
<path d="" fill="#1669D2" transform="translate(0,0)"/>
<path d="" fill="#1669D2" transform="translate(0,0)"/>
<path d="" fill="#1569D3" transform="translate(0,0)"/>
<path d="" fill="#1569D3" transform="translate(0,0)"/>
<path d="" fill="#156AD4" transform="translate(0,0)"/>
<path d="" fill="#156AD4" transform="translate(0,0)"/>
<path d="" fill="#156AD4" transform="translate(0,0)"/>
<path d="" fill="#156BD5" transform="translate(0,0)"/>
<path d="" fill="#156BD6" transform="translate(0,0)"/>
<path d="" fill="#136BD7" transform="translate(0,0)"/>
<path d="" fill="#1A6FD3" transform="translate(0,0)"/>
<path d="" fill="#1A70D3" transform="translate(0,0)"/>
<path d="" fill="#1A70D3" transform="translate(0,0)"/>
<path d="" fill="#1B71D3" transform="translate(0,0)"/>
<path d="" fill="#1A76DC" transform="translate(0,0)"/>
<path d="" fill="#1B7FDC" transform="translate(0,0)"/>
<path d="" fill="#1B7FDC" transform="translate(0,0)"/>
<path d="" fill="#1C80DC" transform="translate(0,0)"/>
<path d="" fill="#1C80DC" transform="translate(0,0)"/>
<path d="" fill="#1B80DC" transform="translate(0,0)"/>
<path d="" fill="#1C81DD" transform="translate(0,0)"/>
<path d="" fill="#1C81DD" transform="translate(0,0)"/>
<path d="" fill="#1C81DD" transform="translate(0,0)"/>
<path d="" fill="#1C82DD" transform="translate(0,0)"/>
<path d="" fill="#1C82DD" transform="translate(0,0)"/>
<path d="" fill="#1C82DD" transform="translate(0,0)"/>
<path d="" fill="#1C82DD" transform="translate(0,0)"/>
<path d="" fill="#1D83DD" transform="translate(0,0)"/>
<path d="" fill="#1C83DE" transform="translate(0,0)"/>
<path d="" fill="#1D83DD" transform="translate(0,0)"/>
<path d="" fill="#1D84DD" transform="translate(0,0)"/>
<path d="" fill="#1E84DD" transform="translate(0,0)"/>
<path d="" fill="#1F86DD" transform="translate(0,0)"/>
<path d="" fill="#228BDF" transform="translate(0,0)"/>
<path d="" fill="#1E96E3" transform="translate(0,0)"/>
<path d="" fill="#259FE4" transform="translate(0,0)"/>
</svg>
